<svg width="24" height="24" viewBox="0 0 24 24" fill="none" xmlns="http://www.w3.org/2000/svg">
<rect width="24" height="24" rx="12" fill="#E6FFF2"/>
<path d="M11.5288 14.7992C12.0627 15.1074 12.664 15.0678 13.1562 14.8576C13.6482 14.6474 14.0793 14.2533 14.3709 13.7483C14.6625 13.2432 14.7882 12.6728 14.7242 12.1417C14.6602 11.6102 14.3939 11.0698 13.86 10.7615C13.3261 10.4533 12.7249 10.4929 12.2326 10.7031C11.7407 10.9133 11.3095 11.3074 11.0179 11.8124C10.7263 12.3175 10.6006 12.8879 10.6646 13.419C10.7286 13.9504 10.995 14.4909 11.5288 14.7992Z" stroke="#0AA154" stroke-width="1.5"/>
<path d="M13.8251 10.6042C14.4055 10.8117 14.99 10.665 15.4365 10.37C15.8829 10.0751 16.2364 9.61009 16.4328 9.06094C16.6292 8.51179 16.6506 7.92806 16.4925 7.41701C16.3342 6.90568 15.9753 6.42167 15.3949 6.21411C14.8144 6.00655 14.23 6.15324 13.7834 6.44831C13.3371 6.74321 12.9835 7.20818 12.7872 7.75733C12.5908 8.30649 12.5693 8.89021 12.7275 9.40126C12.8857 9.91259 13.2446 10.3966 13.8251 10.6042Z" stroke="#0AA154" stroke-width="1.5" stroke-linecap="round"/>
<path d="M10.5972 14.6143C11.0672 15.0132 11.2324 15.5927 11.2001 16.127C11.1679 16.661 10.942 17.1996 10.5646 17.6443C10.1872 18.0889 9.69239 18.3993 9.17074 18.5179C8.6488 18.6366 8.05018 18.5677 7.5802 18.1688C7.11021 17.7699 6.94503 17.1904 6.97728 16.6562C7.00951 16.1222 7.23541 15.5835 7.61281 15.1389C7.9902 14.6942 8.485 14.3838 9.00666 14.2652C9.52859 14.1466 10.1272 14.2154 10.5972 14.6143Z" stroke="#0AA154" stroke-width="1.5" stroke-linecap="round"/>
</svg>
