<svg width="24" height="24" viewBox="0 0 24 24" fill="none" xmlns="http://www.w3.org/2000/svg">
<rect width="24" height="24" rx="12" fill="#FFE6F4"/>
<g clip-path="url(#clip0_1256_89235)">
<path d="M19.5 14.25C19.5 17.1495 17.1495 19.5 14.25 19.5V21C17.9779 21 21 17.9779 21 14.25H19.5ZM14.25 19.5C11.3505 19.5 9 17.1495 9 14.25H7.5C7.5 17.9779 10.5221 21 14.25 21V19.5ZM9 14.25C9 11.3505 11.3505 9 14.25 9V7.5C10.5221 7.5 7.5 10.5221 7.5 14.25H9ZM14.25 9C17.1495 9 19.5 11.3505 19.5 14.25H21C21 10.5221 17.9779 7.5 14.25 7.5V9Z" fill="#78164C"/>
<path d="M17.25 16.125C17.2647 15.9599 17.3297 15.819 17.4405 15.6992C17.5614 15.5684 17.7314 15.4736 17.9261 15.3902C18.1064 15.3129 18.2176 15.2432 18.2842 15.1712C18.3434 15.1071 18.375 15.0332 18.375 14.9196C18.375 14.8248 18.334 14.7575 18.2681 14.7083C18.1972 14.6554 18.0974 14.625 18 14.625C17.9026 14.625 17.8028 14.6554 17.7319 14.7083C17.666 14.7575 17.625 14.8248 17.625 14.9196H17.25C17.25 14.693 17.3582 14.5193 17.5076 14.4078C17.652 14.3 17.8334 14.25 18 14.25C18.1666 14.25 18.348 14.3 18.4924 14.4078C18.6418 14.5193 18.75 14.693 18.75 14.9196C18.75 15.1199 18.6878 15.287 18.5595 15.4258C18.4386 15.5566 18.2686 15.6514 18.0739 15.7348C17.8936 15.8121 17.7824 15.8818 17.7158 15.9538C17.6718 16.0014 17.6431 16.0544 17.6312 16.125H18.75V16.5H17.25V16.125Z" fill="#78164C"/>
<path fill-rule="evenodd" clip-rule="evenodd" d="M12.2349 16.1844C11.9461 16.4 11.5832 16.5 11.25 16.5C10.9168 16.5 10.5539 16.4 10.2651 16.1844C9.96647 15.9614 9.75 15.614 9.75 15.1607H10.5C10.5 15.3503 10.582 15.485 10.7138 15.5834C10.8556 15.6893 11.0552 15.75 11.25 15.75C11.4448 15.75 11.6444 15.6893 11.7862 15.5834C11.918 15.485 12 15.3503 12 15.1607C12 14.9337 11.9368 14.7857 11.8184 14.6576C11.6852 14.5136 11.4628 14.3742 11.1023 14.2197C10.7128 14.0528 10.3727 13.8631 10.1309 13.6015C9.87435 13.3241 9.75 12.9899 9.75 12.5893C9.75 12.136 9.96647 11.7886 10.2651 11.5656C10.5539 11.35 10.9168 11.25 11.25 11.25C11.5832 11.25 11.9461 11.35 12.2349 11.5656C12.5335 11.7886 12.75 12.136 12.75 12.5893H12C12 12.3997 11.918 12.265 11.7862 12.1666C11.6444 12.0607 11.4448 12 11.25 12C11.0552 12 10.8556 12.0607 10.7138 12.1666C10.582 12.265 10.5 12.3997 10.5 12.5893C10.5 12.8163 10.5632 12.9643 10.6816 13.0924C10.8148 13.2364 11.0372 13.3758 11.3977 13.5303C11.7872 13.6972 12.1273 13.8869 12.3691 14.1485C12.6257 14.4259 12.75 14.7601 12.75 15.1607C12.75 15.614 12.5335 15.9614 12.2349 16.1844Z" fill="#78164C"/>
<path fill-rule="evenodd" clip-rule="evenodd" d="M13.5 12.75C13.5 11.9216 14.1716 11.25 15 11.25C15.8284 11.25 16.5 11.9216 16.5 12.75V15C16.5 15.8284 15.8284 16.5 15 16.5C14.1716 16.5 13.5 15.8284 13.5 15V12.75ZM15 12C14.5858 12 14.25 12.3358 14.25 12.75V15C14.25 15.4142 14.5858 15.75 15 15.75C15.4142 15.75 15.75 15.4142 15.75 15V12.75C15.75 12.3358 15.4142 12 15 12Z" fill="#78164C"/>
<path d="M10.875 7.125L12 9M7.125 17.625L9 16.875" stroke="#78164C" stroke-width="0.75"/>
<circle cx="5.625" cy="18.375" r="1.5" stroke="#78164C" stroke-width="0.75"/>
<circle cx="10.125" cy="5.625" r="1.5" stroke="#78164C" stroke-width="0.75"/>
</g>
<defs>
<clipPath id="clip0_1256_89235">
<rect width="18" height="18" fill="white" transform="translate(3 3)"/>
</clipPath>
</defs>
</svg>
