<?xml version="1.0" standalone="no"?>
<!DOCTYPE svg PUBLIC "-//W3C//DTD SVG 20010904//EN"
 "http://www.w3.org/TR/2001/REC-SVG-20010904/DTD/svg10.dtd">
<svg version="1.0" xmlns="http://www.w3.org/2000/svg"
 width="512.000000pt" height="512.000000pt" viewBox="0 0 512.000000 512.000000"
 preserveAspectRatio="xMidYMid meet">

<g transform="translate(0.000000,512.000000) scale(0.100000,-0.100000)"
fill="#000000" stroke="none">
<path d="M625 5106 c-147 -34 -196 -65 -368 -235 -206 -202 -252 -294 -252
-501 0 -140 20 -227 79 -341 46 -88 571 -789 612 -815 36 -24 92 -12 127 26
36 40 36 87 0 141 l-27 40 452 452 451 451 38 -27 c92 -64 198 -6 179 97 -8
43 -6 41 -429 360 -334 252 -424 309 -542 341 -84 22 -245 28 -320 11z m733
-521 l171 -130 -431 -432 -431 -431 -101 131 c-55 73 -126 165 -157 206 -65
85 -65 81 -3 207 59 117 247 314 473 496 94 76 134 101 191 120 52 18 17 38
288 -167z"/>
<path d="M4224 5104 c-82 -16 -189 -58 -255 -100 -83 -53 -738 -554 -753 -576
-9 -12 -16 -35 -16 -51 0 -95 99 -138 183 -80 l38 27 451 -452 452 -451 -27
-38 c-37 -53 -36 -102 2 -145 25 -28 36 -33 74 -33 24 0 52 7 62 15 36 30 541
706 583 779 121 216 133 444 33 646 -35 71 -57 97 -189 227 -128 126 -160 153
-224 183 -131 62 -266 78 -414 49z m-113 -379 c82 -42 343 -270 482 -423 60
-65 91 -109 123 -177 24 -49 44 -98 46 -107 2 -10 -64 -106 -152 -223 l-155
-205 -432 432 -431 431 26 21 c15 12 107 82 206 157 l180 137 37 -13 c20 -7
52 -21 70 -30z"/>
<path d="M2335 4035 c-322 -51 -600 -193 -829 -421 -284 -285 -435 -649 -436
-1052 0 -401 144 -757 423 -1041 293 -298 653 -451 1067 -451 339 0 645 104
905 306 273 212 455 488 541 819 59 225 58 505 -1 735 -121 473 -482 871 -935
1031 -230 82 -509 110 -735 74z"/>
<path d="M700 1907 c-35 -18 -561 -715 -609 -807 -66 -127 -86 -206 -85 -345
0 -105 4 -130 27 -199 39 -112 77 -163 239 -322 114 -113 156 -147 208 -172
184 -87 415 -79 611 22 72 37 772 556 808 599 7 9 15 34 18 56 5 36 2 44 -30
76 -45 45 -93 48 -150 8 l-38 -27 -451 452 -452 451 27 38 c39 57 37 105 -7
149 -37 37 -72 43 -116 21z m813 -1255 c-10 -7 -103 -77 -206 -155 -133 -101
-194 -141 -210 -139 -12 2 -59 22 -104 44 -128 64 -317 243 -519 493 -51 64
-108 165 -116 207 -2 10 64 105 152 222 l155 206 433 -433 c388 -388 430 -433
415 -445z"/>
<path d="M4307 1890 c-31 -27 -37 -38 -37 -73 0 -28 8 -53 27 -80 l27 -38
-452 -452 -451 -451 -32 23 c-84 62 -189 19 -189 -77 0 -15 7 -38 16 -50 28
-40 730 -565 813 -608 145 -75 311 -100 461 -70 145 29 195 61 368 230 136
134 158 159 193 231 52 105 73 205 65 315 -13 212 -51 284 -376 716 -145 192
-275 362 -290 377 -17 19 -41 30 -67 34 -35 4 -45 1 -76 -27z m455 -789 c-17
-78 -107 -205 -285 -401 -133 -147 -253 -249 -349 -297 -46 -23 -93 -43 -105
-45 -16 -2 -81 41 -227 152 l-206 155 432 432 431 431 156 -205 c87 -114 154
-213 153 -222z"/>
</g>
</svg>
