<svg width="24" height="24" viewBox="0 0 24 24" fill="none" xmlns="http://www.w3.org/2000/svg">
<rect width="24" height="24" rx="12" fill="#FFF8E6"/>
<g clip-path="url(#clip0_1256_89236)">
<path d="M12.0078 15.5381L8.2955 11.8258" stroke="#BD9A3C" stroke-width="0.75" stroke-linecap="round"/>
<path d="M19.2701 7.88018L13.2975 14.706L13.2975 14.706L9.12788 10.5365L15.9537 4.56383C16.2509 4.30382 16.6987 4.31874 16.9779 4.59794L19.236 6.85597C19.5152 7.13517 19.5301 7.58302 19.2701 7.88018Z" stroke="#BD9A3C" stroke-width="1.5"/>
<path d="M13.0684 12.3562L17.5762 7.31809" stroke="#BD9A3C" stroke-width="0.75" stroke-linecap="round"/>
<path d="M9.62109 13.1516L8.80185 14.517C8.60099 14.8518 8.98159 15.2324 9.31634 15.0315L10.6818 14.2123L9.62109 13.1516Z" fill="#BD9A3C"/>
<path d="M10.5 18.75C10.5 19.1642 8.98896 19.5 7.125 19.5C5.26104 19.5 3.75 19.1642 3.75 18.75C3.75 18.3358 5.26104 18 7.125 18C8.98896 18 10.5 18.3358 10.5 18.75Z" fill="#BD9A3C"/>
<path fill-rule="evenodd" clip-rule="evenodd" d="M6.375 18.4583C7.41053 18.4583 8.25 18.2718 8.25 18.0417C8.25 17.8115 7.41053 17.625 6.375 17.625C5.33947 17.625 4.5 17.8115 4.5 18.0417C4.5 18.2718 5.33947 18.4583 6.375 18.4583ZM7.875 19.9167C8.91053 19.9167 9.75 19.7301 9.75 19.5C9.75 19.2699 8.91053 19.0833 7.875 19.0833C6.83947 19.0833 6 19.2699 6 19.5C6 19.7301 6.83947 19.9167 7.875 19.9167Z" fill="#BD9A3C"/>
<path d="M9 16.5C9 17.1213 8.78613 17.25 8.625 17.25C8.46387 17.25 8.25 17.1213 8.25 16.5C8.25 15.8787 8.46654 15.75 8.625 15.75C8.78346 15.75 9 15.8787 9 16.5Z" fill="#BD9A3C"/>
</g>
<defs>
<clipPath id="clip0_1256_89236">
<rect width="18" height="18" fill="white" transform="translate(3 3)"/>
</clipPath>
</defs>
</svg>
