<svg width="24" height="24" viewBox="0 0 24 24" fill="none" xmlns="http://www.w3.org/2000/svg">
<rect width="24" height="24" rx="12" fill="#FFF0E6"/>
<mask id="path-2-outside-1_1256_89237" maskUnits="userSpaceOnUse" x="1.72938" y="0.58521" width="20.7583" height="22.9545" fill="black">
<rect fill="white" x="1.72938" y="0.58521" width="20.7583" height="22.9545"/>
<path fill-rule="evenodd" clip-rule="evenodd" d="M14.3851 11.7815C15.3173 11.5923 16.1958 10.983 16.7379 10.0442C17.6871 8.40009 17.2449 6.3677 15.7503 5.50475C14.2556 4.64181 12.2744 5.27509 11.3252 6.91922C10.7832 7.85805 10.6948 8.92347 10.997 9.82547C9.37024 9.77466 7.72294 10.6585 6.80518 12.2481C5.51076 14.4901 6.15776 17.287 8.25029 18.4951C10.3428 19.7033 13.0885 18.8651 14.3829 16.6231C15.3007 15.0335 15.2425 13.165 14.3851 11.7815Z"/>
</mask>
<path d="M14.3851 11.7815L14.0866 10.3115L11.975 10.7402L13.1101 12.5717L14.3851 11.7815ZM10.997 9.82547L10.9502 11.3247L13.1039 11.392L12.4193 9.3489L10.997 9.82547ZM15.4388 9.29422C15.1069 9.86903 14.5883 10.2097 14.0866 10.3115L14.6835 13.2515C16.0463 12.9749 17.2847 12.0971 18.0369 10.7942L15.4388 9.29422ZM15.0003 6.80379C15.6638 7.18686 16.0427 8.24824 15.4388 9.29422L18.0369 10.7942C19.3315 8.55193 18.8261 5.54854 16.5003 4.20572L15.0003 6.80379ZM12.6242 7.66922C13.2281 6.62324 14.3368 6.42073 15.0003 6.80379L16.5003 4.20572C14.1744 2.86289 11.3207 3.92693 10.0262 6.16922L12.6242 7.66922ZM12.4193 9.3489C12.2567 8.86352 12.2924 8.24404 12.6242 7.66922L10.0262 6.16922C9.27396 7.47206 9.13293 8.98342 9.57476 10.302L12.4193 9.3489ZM8.10421 12.9981C8.75416 11.8724 9.89263 11.2917 10.9502 11.3247L11.0439 8.3262C8.84786 8.25761 6.69172 9.44466 5.50614 11.4981L8.10421 12.9981ZM9.00029 17.1961C7.70816 16.4501 7.17443 14.6086 8.10421 12.9981L5.50614 11.4981C3.84708 14.3717 4.60736 18.1239 7.50029 19.7942L9.00029 17.1961ZM13.0839 15.8731C12.1541 17.4836 10.2924 17.9421 9.00029 17.1961L7.50029 19.7942C10.3932 21.4644 14.0229 20.2467 15.6819 17.3731L13.0839 15.8731ZM13.1101 12.5717C13.6675 13.4711 13.7338 14.7474 13.0839 15.8731L15.6819 17.3731C16.8675 15.3197 16.8175 12.8588 15.66 10.9913L13.1101 12.5717Z" fill="#B77E53" mask="url(#path-2-outside-1_1256_89237)"/>
<circle cx="14.8995" cy="8.47789" r="0.75" transform="rotate(30 14.8995 8.47789)" fill="#B77E53"/>
<circle r="0.75" transform="matrix(-0.866025 -0.5 -0.5 0.866025 8.55165 13.473)" fill="#B77E53"/>
<circle cx="14.3507" cy="6.42882" r="0.75" transform="rotate(30 14.3507 6.42882)" fill="#B77E53"/>
<circle r="0.75" transform="matrix(-0.866025 -0.5 -0.5 0.866025 10.6005 12.9239)" fill="#B77E53"/>
<circle cx="12.8507" cy="9.02696" r="0.75" transform="rotate(30 12.8507 9.02696)" fill="#B77E53"/>
<circle r="0.75" transform="matrix(-0.866025 -0.5 -0.5 0.866025 9.10048 15.5221)" fill="#B77E53"/>
</svg>
