<svg width="24" height="24" viewBox="0 0 24 24" fill="none" xmlns="http://www.w3.org/2000/svg">
<rect width="24" height="24" rx="12" fill="#FFF4E6"/>
<path d="M12 19.5C8.71356 19.5 6.3341 17.165 6.02955 13.8037C5.87365 12.083 6.34556 10.7294 7.16509 9.03124C7.41867 8.50578 7.93046 7.75191 8.49018 7.0289C9.05044 6.30519 9.60099 5.68656 9.90358 5.4175C10.2881 5.07558 10.6026 4.85361 10.916 4.71249C11.2199 4.57563 11.5559 4.5 12 4.5C12.4441 4.5 12.7801 4.57563 13.084 4.71249C13.3974 4.85361 13.7119 5.07559 14.0964 5.4175C14.399 5.68656 14.9496 6.30519 15.5098 7.0289C16.0695 7.75191 16.5813 8.50578 16.8349 9.03124C17.6544 10.7294 18.1263 12.083 17.9704 13.8037C17.6659 17.165 15.2864 19.5 12 19.5Z" stroke="#F7A134" stroke-width="1.5"/>
<path d="M12 6.75C10.875 7.125 8.25 10.125 8.25 13.5" stroke="#F7A134" stroke-width="0.75" stroke-linecap="round"/>
</svg>
